<svg xmlns="http://www.w3.org/2000/svg" width="98" height="112" fill="none">
    <path fill="#333" d="m48.42.405 7.982 3.512c1.497.658 1.614 2.737.2 3.56L11.995 33.421A2 2 0 0 0 11 35.15v41.663a2 2 0 0 0 1.042 1.755l7 3.819c1.333.727 2.958-.238 2.958-1.756V41.646a2 2 0 0 1 .989-1.725L70.48 12.098a2 2 0 0 1 2.035.007l24.01 14.313a2 2 0 0 1 .975 1.718V82.74a2 2 0 0 1-1.137 1.804l-7.5 3.587A2 2 0 0 1 86 86.326V44.032c0-1.554-1.696-2.514-3.029-1.715l-6 3.6A2 2 0 0 0 76 47.632v47.656a2 2 0 0 1-1.075 1.773l-7.5 3.913c-1.331.695-2.925-.271-2.925-1.773V56.032c0-1.554-1.696-2.514-3.029-1.715l-6 3.6a2 2 0 0 0-.971 1.715v47.549c0 .8-.477 1.523-1.212 1.839l-4.725 2.025a2.003 2.003 0 0 1-1.988-.239L44.3 109.1a2 2 0 0 1-.8-1.6V53.635a2 2 0 0 1 .974-1.717l34.46-20.587c1.342-.801 1.287-2.763-.097-3.488l-6.362-3.332a2 2 0 0 0-1.928.039L33.501 45.923a2 2 0 0 0-1.001 1.732V99.06c0 1.534-1.656 2.497-2.99 1.738L1.01 84.575A2 2 0 0 1 0 82.837V28.164a2 2 0 0 1 1.012-1.74L46.626.498A2 2 0 0 1 48.42.405Z"/>
</svg>
